<svg width="1440" height="900" viewBox="0 0 1440 900" fill="none" xmlns="http://www.w3.org/2000/svg">
    <rect width="1440" height="900" fill="#e9eef7"/>
    
    <circle cx="1100" cy="250" r="120" fill="white" fill-opacity="0.4"/>

    <g transform="translate(980, 180)">
        <path d="M0 4C3 0 7 0 10 4C13 0 17 0 20 4" stroke="#12243a" stroke-width="1.5" fill="none" opacity="0.4"/>
    </g>
    <g transform="translate(1040, 220)">
        <path d="M0 3C2 0 5 0 8 3C11 0 14 0 16 3" stroke="#12243a" stroke-width="1" fill="none" opacity="0.3"/>
    </g>
    <g transform="translate(940, 240)">
        <path d="M0 3C2 0 5 0 7 3C9 0 12 0 14 3" stroke="#12243a" stroke-width="1" fill="none" opacity="0.2"/>
    </g>
    
    <path d="M-100 900C200 700 400 850 600 750C800 650 1100 800 1540 600V900H-100Z" fill="#5b6f89" fill-opacity="0.15"/>
    <path d="M-100 900C300 650 600 800 900 700C1200 600 1400 750 1540 700V900H-100Z" fill="#5b6f89" fill-opacity="0.25"/>
    
    <g transform="translate(180, 480)">
        <g>
            <rect x="0" y="0" width="6" height="420" fill="#12243a" fill-opacity="0.8"/>
            <rect x="-1" y="100" width="8" height="2" fill="#12243a"/>
            <rect x="-1" y="200" width="8" height="2" fill="#12243a"/>
            <rect x="-1" y="300" width="8" height="2" fill="#12243a"/>
            <path d="M6 120Q30 110 50 140Q30 130 6 125Z" fill="#12243a" fill-opacity="0.6"/>
            <path d="M0 220Q-25 210 -45 240Q-25 230 0 225Z" fill="#12243a" fill-opacity="0.6"/>
        </g>
        <g transform="translate(35, 80) scale(0.9) rotate(1.5)">
            <rect x="0" y="0" width="4" height="340" fill="#12243a" fill-opacity="0.5"/>
            <rect x="-1" y="80" width="6" height="1.5" fill="#12243a"/>
            <rect x="-1" y="180" width="6" height="1.5" fill="#12243a"/>
            <path d="M4 90Q25 80 40 110Q25 100 4 95Z" fill="#12243a" fill-opacity="0.4"/>
        </g>
    </g>

    <path d="M-100 900C400 880 1000 850 1540 820V900H-100Z" fill="#5b6f89" fill-opacity="0.1"/>
</svg>